# xmcd
#
# Track frame offsets:
# 150
# 21358
# 32964
# 62080
# 86795
# 108632
# 123696
# 141022
# 158310
# 185976
# 210051
# 241544
# 261661
# 279713
# 296689
# 324972
#
# Disc length: 4380 seconds
#
#
# Revision: 0
# Processed by: cddbd v1.5.1PL2 Copyright (c) Steve Scherf et al.
# Submitted via: FreeRIP 2.53 
#
DISCID=ee111a10
DTITLE=McDermott, Nye, Duskin and Patigny - The Third Annual Blues and Boogie Piano Summit
DYEAR=2001
DGENRE=Boogie Woogie
TTITLE0=Maple Leaf Rag
TTITLE1=Fon Fon
TTITLE2=Closer Walk With Thee
TTITLE3=Tipitina
TTITLE4=No No
TTITLE5=Walk The Walk
TTITLE6=Yancey Special
TTITLE7=Lawdy Miss Clawdy
TTITLE8=Ida B
TTITLE9=Oodle Addle
TTITLE10=Kangaroo Girl
TTITLE11=Li'l Red Rooster
TTITLE12=Boogie Woogie Stomp
TTITLE13=Yancey's Last Ride
TTITLE14=King Rubbish Stomp
TTITLE15=Outro
EXTD=1-2-3 Records
EXTT0=
EXTT1=
EXTT2=
EXTT3=
EXTT4=
EXTT5=
EXTT6=
EXTT7=
EXTT8=
EXTT9=
EXTT10=
EXTT11=
EXTT12=
EXTT13=
EXTT14=
EXTT15=
PLAYORDER=
